<mxfile host="app.diagrams.net" modified="2024-01-28T21:24:19.405Z" agent="Mozilla/5.0 (Macintosh; Intel Mac OS X 10_15_7) AppleWebKit/537.36 (KHTML, like Gecko) Chrome/120.0.0.0 Safari/537.36" version="23.0.2" etag="8E8gbpo9CLhdvQ8h_ofN" type="github">
  <diagram name="Page-1" id="wRnGrg6iGE06HjqvxRR6">
    <mxGraphModel>
      <root>
        <mxCell id="0" />
        <mxCell id="1" parent="0" />
      </root>
    </mxGraphModel>
  </diagram>
</mxfile>
